<svg width="14" height="11" viewBox="0 0 14 11" fill="none" xmlns="http://www.w3.org/2000/svg">
<path d="M1.3125 0.0611572H12.6875C13.3984 0.0611572 14 0.66272 14 1.37366C14 1.81116 13.7812 2.19397 13.4531 2.44006L7.51953 6.89709C7.19141 7.14319 6.78125 7.14319 6.45312 6.89709L0.519531 2.44006C0.191406 2.19397 0 1.81116 0 1.37366C0 0.66272 0.574219 0.0611572 1.3125 0.0611572ZM0 3.12366L5.93359 7.60803C6.5625 8.07288 7.41016 8.07288 8.03906 7.60803L14 3.12366V8.81116C14 9.79553 13.207 10.5612 12.25 10.5612H1.75C0.765625 10.5612 0 9.79553 0 8.81116V3.12366Z" fill="#101418"/>
</svg>
