<svg width="19" height="15" viewBox="0 0 19 15" fill="none" xmlns="http://www.w3.org/2000/svg">
<path d="M2.03906 0.47522L5.10156 2.85413C6.33203 1.92444 7.86328 1.18616 9.75 1.18616C11.9375 1.18616 13.7148 2.19788 15 3.401C16.2852 4.57678 17.1328 5.99866 17.543 6.98303C17.625 7.20178 17.625 7.44788 17.543 7.66663C17.1875 8.54163 16.4492 9.79944 15.3555 10.8932L18.2266 13.1627C18.5273 13.3815 18.582 13.7916 18.3359 14.0651C18.1172 14.3658 17.707 14.4205 17.4336 14.1744L1.24609 1.48694C0.945312 1.26819 0.890625 0.858032 1.13672 0.584595C1.35547 0.283813 1.76562 0.229126 2.03906 0.47522ZM6.16797 3.70178L7.42578 4.68616C8.05469 4.13928 8.84766 3.81116 9.75 3.81116C11.6641 3.81116 13.25 5.39709 13.25 7.31116C13.25 7.91272 13.1133 8.45959 12.8398 8.92444L14.3164 10.0729C15.2734 9.14319 15.9297 8.07678 16.2578 7.31116C15.9023 6.49084 15.1641 5.34241 14.0977 4.35803C12.9766 3.31897 11.5273 2.49866 9.75 2.49866C8.35547 2.49866 7.17969 2.99084 6.16797 3.70178ZM11.7734 8.10413C11.8828 7.85803 11.9375 7.58459 11.9375 7.31116C11.9375 6.10803 10.9531 5.12366 9.75 5.12366C9.72266 5.12366 9.69531 5.12366 9.69531 5.12366C9.72266 5.28772 9.75 5.42444 9.75 5.56116C9.75 5.86194 9.66797 6.10803 9.55859 6.35413L11.7734 8.10413ZM12.0469 11.6588L13.1953 12.5612C12.1836 13.108 11.0352 13.4362 9.75 13.4362C7.53516 13.4362 5.75781 12.4518 4.47266 11.2487C3.1875 10.0455 2.33984 8.62366 1.92969 7.66663C1.84766 7.44788 1.84766 7.20178 1.92969 6.98303C2.20312 6.35413 2.64062 5.56116 3.26953 4.74084L4.28125 5.56116C3.78906 6.19006 3.43359 6.81897 3.21484 7.31116C3.59766 8.13147 4.30859 9.30725 5.375 10.2916C6.49609 11.3307 7.94531 12.1237 9.75 12.1237C10.5703 12.1237 11.3359 11.9596 12.0469 11.6588ZM6.25 7.31116H6.22266C6.22266 7.25647 6.25 7.17444 6.25 7.09241L7.78125 8.29553C8.05469 8.86975 8.60156 9.30725 9.25781 9.44397L10.7891 10.6744C10.4609 10.7565 10.1055 10.8112 9.75 10.8112C7.80859 10.8112 6.25 9.25256 6.25 7.31116Z" fill="#101418"/>
</svg>
