<svg width="16" height="13" viewBox="0 0 16 13" fill="none" xmlns="http://www.w3.org/2000/svg">
<path d="M4.64551 6.56116C4.64551 4.64709 6.2041 3.06116 8.14551 3.06116C10.0596 3.06116 11.6455 4.64709 11.6455 6.56116C11.6455 8.50256 10.0596 10.0612 8.14551 10.0612C6.2041 10.0612 4.64551 8.50256 4.64551 6.56116ZM8.14551 8.74866C9.34863 8.74866 10.333 7.79163 10.333 6.56116C10.333 5.35803 9.34863 4.37366 8.14551 4.37366C8.11816 4.37366 8.09082 4.37366 8.06348 4.37366C8.11816 4.53772 8.14551 4.67444 8.14551 4.81116C8.14551 5.79553 7.35254 6.56116 6.39551 6.56116C6.23145 6.56116 6.09473 6.56116 5.95801 6.50647C5.95801 6.53381 5.95801 6.56116 5.95801 6.56116C5.95801 7.79163 6.91504 8.74866 8.14551 8.74866ZM2.86816 2.651C4.15332 1.44788 5.93066 0.436157 8.14551 0.436157C10.333 0.436157 12.1104 1.44788 13.3955 2.651C14.6807 3.82678 15.5283 5.24866 15.9385 6.23303C16.0205 6.45178 16.0205 6.69788 15.9385 6.91663C15.5283 7.87366 14.6807 9.29553 13.3955 10.4987C12.1104 11.7018 10.333 12.6862 8.14551 12.6862C5.93066 12.6862 4.15332 11.7018 2.86816 10.4987C1.58301 9.29553 0.735352 7.87366 0.325195 6.91663C0.243164 6.69788 0.243164 6.45178 0.325195 6.23303C0.735352 5.24866 1.58301 3.82678 2.86816 2.651ZM8.14551 1.74866C6.34082 1.74866 4.8916 2.56897 3.77051 3.60803C2.7041 4.59241 1.99316 5.74084 1.61035 6.56116C1.99316 7.38147 2.7041 8.55725 3.77051 9.54163C4.8916 10.5807 6.34082 11.3737 8.14551 11.3737C9.92285 11.3737 11.3721 10.5807 12.4932 9.54163C13.5596 8.55725 14.2705 7.38147 14.6533 6.56116C14.2705 5.74084 13.5596 4.59241 12.4932 3.60803C11.3721 2.56897 9.92285 1.74866 8.14551 1.74866Z" fill="#101418"/>
</svg>
