<svg width="25" height="25" viewBox="0 0 25 25" fill="none" xmlns="http://www.w3.org/2000/svg">
<g clip-path="url(#clip0_3277_82623)">
<path d="M24.2643 12.8617C24.2643 12.045 24.1976 11.2285 24.0643 10.4285H12.748V15.045H19.2311C18.9645 16.5282 18.0979 17.8616 16.8312 18.6948V21.6947H20.6976C22.9643 19.6114 24.2641 16.5282 24.2641 12.8617H24.2643Z" fill="#3C79E6"/>
<path d="M12.7437 24.5947C15.9769 24.5947 18.7102 23.5281 20.6935 21.6947L16.827 18.6949C15.7437 19.4282 14.3604 19.8448 12.7439 19.8448C9.61078 19.8448 6.96075 17.7282 6.01075 14.895H2.02734V17.9949C4.06064 22.0281 8.21042 24.5947 12.7436 24.5947H12.7437Z" fill="#31AA52"/>
<path d="M6.0109 14.895C5.51093 13.4117 5.51093 11.795 6.0109 10.2951V7.21191H2.02766C0.311091 10.5955 0.311091 14.5948 2.02766 17.9783L6.0109 14.8951V14.895Z" fill="#FBBD00"/>
<path d="M12.7437 5.34511C14.4603 5.3117 16.1102 5.96169 17.3435 7.14506L20.7602 3.72842C18.5934 1.67857 15.7269 0.562025 12.7437 0.595265C8.21042 0.595265 4.06064 3.16196 2.02734 7.21171L6.01058 10.3116C6.96058 7.46178 9.61044 5.34511 12.7437 5.34511Z" fill="#EB4132"/>
<mask id="mask0_3277_82623" style="mask-type:alpha" maskUnits="userSpaceOnUse" x="2" y="0" width="19" height="11">
<path d="M12.7496 5.34517C14.4662 5.31176 16.1161 5.96175 17.3494 7.14512L20.766 3.72848C18.5992 1.67863 15.7327 0.562086 12.7496 0.595326C8.21628 0.595326 4.0665 3.16202 2.0332 7.21177L6.01644 10.3117C6.96643 7.46184 9.6163 5.34517 12.7496 5.34517Z" fill="#EB4132"/>
</mask>
<g mask="url(#mask0_3277_82623)">
<path d="M10.5447 5.78862L9.44427 1.22207L9.2207 0.304363L15.1519 -1.01989L21.0434 3.68905L17.7891 7.78318L10.5447 5.78862Z" fill="#CF2D48"/>
</g>
</g>
<defs>
<clipPath id="clip0_3277_82623">
<rect width="23.52" height="24" fill="white" transform="translate(0.742188 0.594482)"/>
</clipPath>
</defs>
</svg>
