<svg width="13" height="15" viewBox="0 0 13 15" fill="none" xmlns="http://www.w3.org/2000/svg">
<path d="M3.9375 4.24866V5.56116H8.3125V4.24866C8.3125 3.04553 7.32812 2.06116 6.125 2.06116C4.89453 2.06116 3.9375 3.04553 3.9375 4.24866ZM2.1875 5.56116V4.24866C2.1875 2.0885 3.9375 0.311157 6.125 0.311157C8.28516 0.311157 10.0625 2.0885 10.0625 4.24866V5.56116H10.5C11.457 5.56116 12.25 6.35413 12.25 7.31116V12.5612C12.25 13.5455 11.457 14.3112 10.5 14.3112H1.75C0.765625 14.3112 0 13.5455 0 12.5612V7.31116C0 6.35413 0.765625 5.56116 1.75 5.56116H2.1875Z" fill="#101418"/>
</svg>
